<svg xmlns="http://www.w3.org/2000/svg"  viewBox="0 0 64 64" width="64px" height="64px"><linearGradient id="hdS5PT1_ZTmWCEifCAH3ia" x1="14" x2="14" y1="-6.444" y2="65.53" gradientUnits="userSpaceOnUse"><stop offset="0" stop-color="#ffffff"/><stop offset=".699" stop-color="#ffffff"/></linearGradient><path fill="url(#hdS5PT1_ZTmWCEifCAH3ia)" d="M11,18.812L10,17v-7h8v37l-8-4V32l1-2.625C11,29.375,11,18.375,11,18.812z"/><linearGradient id="hdS5PT1_ZTmWCEifCAH3ib" x1="50" x2="50" y1="-6.444" y2="65.53" gradientUnits="userSpaceOnUse"><stop offset="0" stop-color="#ffffff"/><stop offset=".699" stop-color="#ffffff"/></linearGradient><path fill="url(#hdS5PT1_ZTmWCEifCAH3ib)" d="M53,18.812L54,17v-7h-8v37l8-4V32 l-1-2.625C53,29.375,53,18.375,53,18.812z"/><linearGradient id="hdS5PT1_ZTmWCEifCAH3ic" x1="26" x2="26" y1="-6.444" y2="65.53" gradientUnits="userSpaceOnUse"><stop offset="0" stop-color="#ffffff"/><stop offset=".699" stop-color="#ffffff"/></linearGradient><polygon fill="url(#hdS5PT1_ZTmWCEifCAH3ic)" points="22,10 30,10 30,55 22,50"/><linearGradient id="hdS5PT1_ZTmWCEifCAH3id" x1="38" x2="38" y1="-6.444" y2="65.53" gradientUnits="userSpaceOnUse"><stop offset="0" stop-color="#ffffff"/><stop offset=".699" stop-color="#ffffff"/></linearGradient><polygon fill="url(#hdS5PT1_ZTmWCEifCAH3id)" points="42,10 34,10 34,55 42,50"/><linearGradient id="hdS5PT1_ZTmWCEifCAH3ie" x1="-96.125" x2="-96.125" y1="69.188" y2="29.383" gradientTransform="matrix(1 0 0 -1 110.125 78.188)" gradientUnits="userSpaceOnUse"><stop offset="0" stop-color="#ffffff"/><stop offset=".695" stop-color="#ffffff"/></linearGradient><path fill="url(#hdS5PT1_ZTmWCEifCAH3ie)" d="M19,48.805l-10-6.25V31.816l1-2.625 V19.07l-1-1.812V9h10V48.805z M11,41.445l6,3.75V11h-6v5.742l1,2.058v10.759l-1,2.625V41.445z"/><g><linearGradient id="hdS5PT1_ZTmWCEifCAH3if" x1="-25.125" x2="-25.125" y1="69.188" y2="29.383" gradientTransform="rotate(180 12.438 39.094)" gradientUnits="userSpaceOnUse"><stop offset="0" stop-color="#ffffff"/><stop offset=".695" stop-color="#ffffff"/></linearGradient><path fill="url(#hdS5PT1_ZTmWCEifCAH3if)" d="M45,48.805V9h10v8.258l-1,1.812v10.121 l1,2.625v10.738L45,48.805z M47,11v34.195l6-3.75v-9.262l-1-2.625V18.8l1-2.058V11H47z"/></g><g><linearGradient id="hdS5PT1_ZTmWCEifCAH3ig" x1="26" x2="26" y1="9" y2="56.805" gradientUnits="userSpaceOnUse"><stop offset="0" stop-color="#ffffff"/><stop offset=".695" stop-color="#ffffff"/></linearGradient><path fill="url(#hdS5PT1_ZTmWCEifCAH3ig)" d="M31,56.805l-10-6.25V9h10V56.805z M23,49.445l6,3.75V11h-6V49.445z"/></g><g><linearGradient id="hdS5PT1_ZTmWCEifCAH3ih" x1="28" x2="28" y1="9" y2="56.805" gradientTransform="matrix(-1 0 0 1 66 0)" gradientUnits="userSpaceOnUse"><stop offset="0" stop-color="#ffffff"/><stop offset=".695" stop-color="#ffffff"/></linearGradient><path fill="url(#hdS5PT1_ZTmWCEifCAH3ih)" d="M33,56.805V9h10v41.555L33,56.805z M35,11v42.195l6-3.75V11H35z"/></g></svg>